<?xml version="1.0" encoding="utf-8"?>
<!-- Generator: Adobe Illustrator 17.1.0, SVG Export Plug-In . SVG Version: 6.00 Build 0)  -->
<!DOCTYPE svg PUBLIC "-//W3C//DTD SVG 1.1//EN" "http://www.w3.org/Graphics/SVG/1.1/DTD/svg11.dtd">
<svg version="1.1" id="Layer_1_copy" xmlns="http://www.w3.org/2000/svg" xmlns:xlink="http://www.w3.org/1999/xlink" x="0px"
	 y="0px" viewBox="0 0 1224 792" enable-background="new 0 0 1224 792" xml:space="preserve">
<g>
	<path d="M707.3,417.9c0,5.3-4.3,9.5-9.5,9.5H526.2c-5.3,0-9.5-4.3-9.5-9.5V372c0-5.3,4.3-9.5,9.5-9.5h171.5c5.3,0,9.5,4.3,9.5,9.5
		V417.9z"/>
	<g>
		<path fill-rule="evenodd" clip-rule="evenodd" fill="#F89820" d="M651.6,414.7c-5.9,4.4-14.5,6.7-21.8,6.7
			c-10.3,0-19.6-3.8-26.7-10.2c-0.6-0.5-0.1-1.2,0.6-0.8c7.6,4.4,17,7.1,26.7,7.1c6.5,0,13.7-1.4,20.4-4.2
			C651.7,412.9,652.5,414,651.6,414.7z"/>
		<path fill-rule="evenodd" clip-rule="evenodd" fill="#F89820" d="M654,411.9c-0.8-1-5-0.5-6.9-0.2c-0.6,0.1-0.7-0.4-0.1-0.8
			c3.4-2.4,8.9-1.7,9.6-0.9c0.6,0.8-0.2,6.4-3.3,9c-0.5,0.4-1,0.2-0.7-0.3C653.2,416.8,654.8,412.8,654,411.9z"/>
	</g>
	<path fill-rule="evenodd" clip-rule="evenodd" fill="#FFFFFF" d="M647.3,394.1v-2.3c0-0.4,0.3-0.6,0.6-0.6l10.3,0
		c0.3,0,0.6,0.2,0.6,0.6v2c0,0.3-0.3,0.8-0.8,1.5l-5.4,7.6c2,0,4.1,0.3,5.9,1.3c0.4,0.2,0.5,0.6,0.5,0.9v2.5c0,0.3-0.4,0.7-0.8,0.5
		c-3.2-1.7-7.4-1.9-10.9,0c-0.4,0.2-0.7-0.2-0.7-0.5v-2.3c0-0.4,0-1,0.4-1.6l6.2-8.9l-5.4,0C647.5,394.7,647.3,394.4,647.3,394.1z"
		/>
	<path fill-rule="evenodd" clip-rule="evenodd" fill="#FFFFFF" d="M609.5,408.5h-3.1c-0.3,0-0.5-0.2-0.6-0.5l0-16.1
		c0-0.3,0.3-0.6,0.6-0.6l2.9,0c0.3,0,0.6,0.2,0.6,0.5v2.1h0.1c0.8-2,2.2-3,4.1-3c2,0,3.2,1,4.1,3c0.8-2,2.5-3,4.3-3
		c1.3,0,2.8,0.5,3.6,1.8c1,1.4,0.8,3.3,0.8,5.1l0,10.2c0,0.3-0.3,0.6-0.6,0.6h-3.1c-0.3,0-0.6-0.3-0.6-0.6v-8.6c0-0.7,0.1-2.4-0.1-3
		c-0.2-1.1-0.9-1.4-1.8-1.4c-0.8,0-1.6,0.5-1.9,1.3c-0.3,0.8-0.3,2.2-0.3,3.1v8.6c0,0.3-0.3,0.6-0.6,0.6h-3.1
		c-0.3,0-0.6-0.3-0.6-0.6l0-8.6c0-1.8,0.3-4.5-1.9-4.5c-2.3,0-2.2,2.6-2.2,4.5l0,8.6C610.2,408.2,609.9,408.5,609.5,408.5z"/>
	<path fill-rule="evenodd" clip-rule="evenodd" fill="#FFFFFF" d="M667.7,390.9c4.7,0,7.2,4,7.2,9.1c0,4.9-2.8,8.8-7.2,8.8
		c-4.6,0-7.1-4-7.1-9C660.6,394.8,663.1,390.9,667.7,390.9z M667.7,394.2c-2.3,0-2.5,3.2-2.5,5.1c0,2,0,6.2,2.4,6.2
		c2.4,0,2.6-3.4,2.6-5.5c0-1.4-0.1-3-0.5-4.3C669.4,394.6,668.7,394.2,667.7,394.2z"/>
	<path fill-rule="evenodd" clip-rule="evenodd" fill="#FFFFFF" d="M680.9,408.5h-3.1c-0.3,0-0.6-0.3-0.6-0.6l0-16.1
		c0-0.3,0.3-0.5,0.6-0.5l2.9,0c0.3,0,0.5,0.2,0.6,0.5v2.5h0.1c0.9-2.2,2.1-3.3,4.3-3.3c1.4,0,2.8,0.5,3.7,1.9c0.8,1.3,0.8,3.5,0.8,5
		V408c0,0.3-0.3,0.5-0.6,0.5h-3.2c-0.3,0-0.5-0.2-0.6-0.5v-8.8c0-1.8,0.2-4.3-2-4.3c-0.8,0-1.5,0.5-1.8,1.3c-0.4,1-0.5,2-0.5,3.1
		v8.7C681.5,408.2,681.3,408.5,680.9,408.5z"/>
	<path fill-rule="evenodd" clip-rule="evenodd" fill="#FFFFFF" d="M639,400.8c0,1.2,0,2.2-0.6,3.3c-0.5,0.9-1.3,1.4-2.2,1.4
		c-1.2,0-1.9-0.9-1.9-2.3c0-2.7,2.4-3.2,4.7-3.2V400.8z M642.2,408.4c-0.2,0.2-0.5,0.2-0.7,0.1c-1-0.9-1.2-1.3-1.8-2.1
		c-1.7,1.8-2.9,2.3-5.2,2.3c-2.6,0-4.7-1.6-4.7-4.9c0-2.6,1.4-4.3,3.4-5.1c1.7-0.7,4.1-0.9,5.9-1.1v-0.4c0-0.7,0.1-1.6-0.4-2.3
		c-0.4-0.6-1.1-0.8-1.8-0.8c-1.2,0-2.3,0.6-2.5,1.9c-0.1,0.3-0.3,0.6-0.5,0.6l-3-0.3c-0.3-0.1-0.5-0.3-0.5-0.7c0.7-3.7,4-4.8,7-4.8
		c1.5,0,3.5,0.4,4.7,1.6c1.5,1.4,1.4,3.3,1.4,5.4v4.9c0,1.5,0.6,2.1,1.2,2.9c0.2,0.3,0.2,0.6,0,0.8
		C644,406.9,642.8,407.9,642.2,408.4L642.2,408.4z"/>
	<path fill-rule="evenodd" clip-rule="evenodd" fill="#FFFFFF" d="M597.8,400.8c0,1.2,0,2.2-0.6,3.3c-0.5,0.9-1.3,1.4-2.2,1.4
		c-1.2,0-1.9-0.9-1.9-2.3c0-2.7,2.4-3.2,4.7-3.2V400.8z M601,408.4c-0.2,0.2-0.5,0.2-0.7,0.1c-1-0.9-1.2-1.3-1.8-2.1
		c-1.7,1.8-2.9,2.3-5.2,2.3c-2.6,0-4.7-1.6-4.7-4.9c0-2.6,1.4-4.3,3.4-5.1c1.7-0.7,4.1-0.9,5.9-1.1v-0.4c0-0.7,0.1-1.6-0.4-2.3
		c-0.4-0.6-1.1-0.8-1.8-0.8c-1.2,0-2.3,0.6-2.5,1.9c-0.1,0.3-0.3,0.6-0.5,0.6l-3-0.3c-0.3-0.1-0.5-0.3-0.5-0.7c0.7-3.7,4-4.8,7-4.8
		c1.5,0,3.5,0.4,4.7,1.6c1.5,1.4,1.4,3.3,1.4,5.4v4.9c0,1.5,0.6,2.1,1.2,2.9c0.2,0.3,0.2,0.6,0,0.8
		C602.7,406.9,601.6,407.9,601,408.4L601,408.4z"/>
	<g>
		<path fill="#FFFFFF" d="M592.2,374.2h1.4l3.7,9.5h-1.4l-1-2.9h-4l-1.1,2.9h-1.3L592.2,374.2z M591.2,379.8h3.2l-1.6-4.4h0
			L591.2,379.8z"/>
		<path fill="#FFFFFF" d="M600.1,383.7h-1.2l-2.6-6.9h1.3l1.9,5.8h0l1.9-5.8h1.2L600.1,383.7z"/>
		<path fill="#FFFFFF" d="M609.2,383.7c-0.2,0.1-0.5,0.2-0.8,0.2c-0.6,0-1-0.3-1-1.1c-0.6,0.7-1.5,1.1-2.4,1.1
			c-1.3,0-2.3-0.6-2.3-1.9c0-1.6,1.2-1.9,2.3-2.1c1.3-0.2,2.3-0.2,2.3-1c0-1-0.8-1.1-1.5-1.1c-1,0-1.7,0.3-1.7,1.3h-1.1
			c0.1-1.7,1.4-2.3,2.9-2.3c1.2,0,2.6,0.3,2.6,1.9v3.6c0,0.5,0,0.8,0.4,0.8c0.1,0,0.2,0,0.3-0.1V383.7z M607.3,380.1
			c-0.4,0.3-1.3,0.3-2.1,0.5c-0.7,0.1-1.4,0.4-1.4,1.2c0,0.7,0.6,1,1.3,1c1.5,0,2.1-0.9,2.1-1.6V380.1z"/>
		<path fill="#FFFFFF" d="M611.1,375.6H610v-1.4h1.1V375.6z M610,376.8h1.1v6.9H610V376.8z"/>
		<path fill="#FFFFFF" d="M612.7,374.2h1.1v9.5h-1.1V374.2z"/>
		<path fill="#FFFFFF" d="M621.3,383.7c-0.2,0.1-0.5,0.2-0.8,0.2c-0.6,0-1-0.3-1-1.1c-0.6,0.7-1.5,1.1-2.4,1.1
			c-1.3,0-2.3-0.6-2.3-1.9c0-1.6,1.2-1.9,2.3-2.1c1.3-0.2,2.3-0.2,2.3-1c0-1-0.8-1.1-1.5-1.1c-1,0-1.7,0.3-1.7,1.3h-1.1
			c0.1-1.7,1.4-2.3,2.9-2.3c1.2,0,2.6,0.3,2.6,1.9v3.6c0,0.5,0,0.8,0.4,0.8c0.1,0,0.2,0,0.3-0.1V383.7z M619.5,380.1
			c-0.4,0.3-1.3,0.3-2.1,0.5c-0.7,0.1-1.4,0.4-1.4,1.2c0,0.7,0.6,1,1.3,1c1.5,0,2.1-0.9,2.1-1.6V380.1z"/>
		<path fill="#FFFFFF" d="M622.1,374.2h1.1v3.6h0c0.4-0.8,1.3-1.1,2.2-1.1c2.1,0,3.2,1.7,3.2,3.6c0,2-1,3.6-3.2,3.6
			c-0.7,0-1.7-0.3-2.2-1.1h0v0.9h-1.1V374.2z M625.3,377.6c-1.5,0-2.1,1.3-2.1,2.6c0,1.4,0.6,2.6,2.2,2.6c1.5,0,2.1-1.3,2.1-2.7
			C627.4,378.9,626.8,377.6,625.3,377.6z"/>
		<path fill="#FFFFFF" d="M629.5,374.2h1.1v9.5h-1.1V374.2z"/>
		<path fill="#FFFFFF" d="M638,381.5c-0.3,1.5-1.4,2.4-3,2.4c-2.2,0-3.2-1.5-3.3-3.6c0-2.1,1.4-3.6,3.2-3.6c2.4,0,3.2,2.3,3.1,4
			h-5.2c0,1.2,0.6,2.3,2.2,2.3c0.9,0,1.6-0.5,1.8-1.3H638z M636.9,379.6c-0.1-1.1-0.9-2-2-2c-1.2,0-1.9,0.9-2,2H636.9z"/>
		<path fill="#FFFFFF" d="M649.1,383.7c-0.2,0.1-0.5,0.2-0.8,0.2c-0.6,0-1-0.3-1-1.1c-0.6,0.7-1.5,1.1-2.4,1.1
			c-1.3,0-2.3-0.6-2.3-1.9c0-1.6,1.2-1.9,2.3-2.1c1.3-0.2,2.3-0.2,2.3-1c0-1-0.8-1.1-1.5-1.1c-1,0-1.7,0.3-1.7,1.3h-1.1
			c0.1-1.7,1.4-2.3,2.9-2.3c1.2,0,2.6,0.3,2.6,1.9v3.6c0,0.5,0,0.8,0.4,0.8c0.1,0,0.2,0,0.3-0.1V383.7z M647.2,380.1
			c-0.4,0.3-1.3,0.3-2.1,0.5c-0.7,0.1-1.4,0.4-1.4,1.2c0,0.7,0.6,1,1.3,1c1.5,0,2.1-0.9,2.1-1.6V380.1z"/>
		<path fill="#FFFFFF" d="M651.7,376.8h1.4v1h-1.4v4.3c0,0.5,0.1,0.6,0.9,0.6h0.5v1h-0.9c-1.2,0-1.6-0.2-1.6-1.5v-4.4h-1.2v-1h1.2
			v-2.1h1.1V376.8z"/>
	</g>
	<g>
		<defs>
			<path id="SVGID_1_" d="M573.4,421h-46c-1.7,0-3-1.4-3-3v-46c0-1.7,1.3-3,3-3h46c1.7,0,3,1.3,3,3v46
				C576.4,419.6,575,421,573.4,421z"/>
		</defs>
		<clipPath id="SVGID_2_">
			<use xlink:href="#SVGID_1_"  overflow="visible"/>
		</clipPath>
		<g clip-path="url(#SVGID_2_)">
			
				<image overflow="visible" width="512" height="512" xlink:href="7B5031FA0C218BB.png"  transform="matrix(0.1028 0 0 0.1028 524.041 368.6524)">
			</image>
		</g>
	</g>
</g>
</svg>
